<svg width="1314" height="58" viewBox="0 0 1314 58" fill="none" xmlns="http://www.w3.org/2000/svg">
<path d="M1058.02 7.72727H1064.09L1070.5 23.3636H1070.77L1077.18 7.72727H1083.25V31H1078.48V15.8523H1078.28L1072.26 30.8864H1069.01L1062.99 15.7955H1062.8V31H1058.02V7.72727ZM1095.1 31.3409C1093.33 31.3409 1091.81 30.9659 1090.52 30.2159C1089.24 29.4583 1088.25 28.4053 1087.55 27.0568C1086.86 25.7008 1086.51 24.1288 1086.51 22.3409C1086.51 20.5379 1086.86 18.9621 1087.55 17.6136C1088.25 16.2576 1089.24 15.2045 1090.52 14.4545C1091.81 13.697 1093.33 13.3182 1095.1 13.3182C1096.86 13.3182 1098.39 13.697 1099.67 14.4545C1100.96 15.2045 1101.95 16.2576 1102.65 17.6136C1103.34 18.9621 1103.69 20.5379 1103.69 22.3409C1103.69 24.1288 1103.34 25.7008 1102.65 27.0568C1101.95 28.4053 1100.96 29.4583 1099.67 30.2159C1098.39 30.9659 1096.86 31.3409 1095.1 31.3409ZM1095.12 27.5909C1095.93 27.5909 1096.6 27.3636 1097.13 26.9091C1097.67 26.447 1098.08 25.8182 1098.35 25.0227C1098.63 24.2273 1098.77 23.322 1098.77 22.3068C1098.77 21.2917 1098.63 20.3864 1098.35 19.5909C1098.08 18.7955 1097.67 18.1667 1097.13 17.7045C1096.6 17.2424 1095.93 17.0114 1095.12 17.0114C1094.31 17.0114 1093.63 17.2424 1093.08 17.7045C1092.53 18.1667 1092.12 18.7955 1091.84 19.5909C1091.57 20.3864 1091.43 21.2917 1091.43 22.3068C1091.43 23.322 1091.57 24.2273 1091.84 25.0227C1092.12 25.8182 1092.53 26.447 1093.08 26.9091C1093.63 27.3636 1094.31 27.5909 1095.12 27.5909ZM1106.84 31V13.5455H1111.53V16.5909H1111.71C1112.03 15.5076 1112.57 14.6894 1113.32 14.1364C1114.07 13.5758 1114.93 13.2955 1115.91 13.2955C1116.15 13.2955 1116.41 13.3106 1116.69 13.3409C1116.97 13.3712 1117.22 13.4129 1117.43 13.4659V17.7614C1117.2 17.6932 1116.89 17.6326 1116.49 17.5795C1116.08 17.5265 1115.72 17.5 1115.38 17.5C1114.67 17.5 1114.04 17.6553 1113.47 17.9659C1112.92 18.2689 1112.48 18.6932 1112.16 19.2386C1111.84 19.7841 1111.68 20.4129 1111.68 21.125V31H1106.84ZM1127.07 31.3409C1125.28 31.3409 1123.73 30.9773 1122.44 30.25C1121.15 29.5152 1120.16 28.4773 1119.46 27.1364C1118.76 25.7879 1118.42 24.1932 1118.42 22.3523C1118.42 20.5568 1118.76 18.9811 1119.46 17.625C1120.16 16.2689 1121.14 15.2121 1122.4 14.4545C1123.68 13.697 1125.17 13.3182 1126.88 13.3182C1128.03 13.3182 1129.1 13.5038 1130.1 13.875C1131.1 14.2386 1131.97 14.7879 1132.71 15.5227C1133.46 16.2576 1134.04 17.1818 1134.46 18.2955C1134.88 19.4015 1135.09 20.697 1135.09 22.1818V23.5114H1120.35V20.5114H1130.53C1130.53 19.8144 1130.38 19.197 1130.07 18.6591C1129.77 18.1212 1129.35 17.7008 1128.81 17.3977C1128.28 17.0871 1127.67 16.9318 1126.96 16.9318C1126.23 16.9318 1125.57 17.1023 1125.01 17.4432C1124.45 17.7765 1124.01 18.2273 1123.69 18.7955C1123.37 19.3561 1123.21 19.9811 1123.2 20.6705V23.5227C1123.2 24.3864 1123.36 25.1326 1123.68 25.7614C1124 26.3902 1124.46 26.875 1125.05 27.2159C1125.64 27.5568 1126.34 27.7273 1127.15 27.7273C1127.69 27.7273 1128.18 27.6515 1128.63 27.5C1129.08 27.3485 1129.46 27.1212 1129.78 26.8182C1130.1 26.5152 1130.34 26.1439 1130.51 25.7045L1134.98 26C1134.76 27.0758 1134.29 28.0152 1133.59 28.8182C1132.89 29.6136 1131.99 30.2348 1130.88 30.6818C1129.78 31.1212 1128.51 31.3409 1127.07 31.3409ZM1149.75 31H1144.48L1152.51 7.72727H1158.86L1166.88 31H1161.61L1155.78 13.0455H1155.59L1149.75 31ZM1149.42 21.8523H1161.88V25.6932H1149.42V21.8523ZM1169.68 31V7.72727H1174.52V16.4773H1174.67C1174.88 16.0076 1175.19 15.5303 1175.59 15.0455C1176 14.553 1176.53 14.1439 1177.18 13.8182C1177.84 13.4848 1178.66 13.3182 1179.63 13.3182C1180.91 13.3182 1182.08 13.6515 1183.16 14.3182C1184.23 14.9773 1185.09 15.9735 1185.74 17.3068C1186.38 18.6326 1186.7 20.2955 1186.7 22.2955C1186.7 24.2424 1186.39 25.8864 1185.76 27.2273C1185.14 28.5606 1184.29 29.572 1183.21 30.2614C1182.15 30.9432 1180.95 31.2841 1179.62 31.2841C1178.68 31.2841 1177.88 31.1288 1177.22 30.8182C1176.57 30.5076 1176.04 30.1174 1175.62 29.6477C1175.21 29.1705 1174.89 28.6894 1174.67 28.2045H1174.45V31H1169.68ZM1174.42 22.2727C1174.42 23.3106 1174.56 24.2159 1174.85 24.9886C1175.14 25.7614 1175.55 26.3636 1176.1 26.7955C1176.65 27.2197 1177.31 27.4318 1178.09 27.4318C1178.88 27.4318 1179.54 27.2159 1180.09 26.7841C1180.63 26.3447 1181.05 25.7386 1181.33 24.9659C1181.61 24.1856 1181.76 23.2879 1181.76 22.2727C1181.76 21.2652 1181.62 20.3788 1181.34 19.6136C1181.06 18.8485 1180.65 18.25 1180.1 17.8182C1179.55 17.3864 1178.88 17.1705 1178.09 17.1705C1177.3 17.1705 1176.63 17.3788 1176.09 17.7955C1175.55 18.2121 1175.14 18.803 1174.85 19.5682C1174.56 20.3333 1174.42 21.2348 1174.42 22.2727ZM1197.82 31.3409C1196.05 31.3409 1194.53 30.9659 1193.24 30.2159C1191.96 29.4583 1190.97 28.4053 1190.27 27.0568C1189.58 25.7008 1189.23 24.1288 1189.23 22.3409C1189.23 20.5379 1189.58 18.9621 1190.27 17.6136C1190.97 16.2576 1191.96 15.2045 1193.24 14.4545C1194.53 13.697 1196.05 13.3182 1197.82 13.3182C1199.58 13.3182 1201.11 13.697 1202.39 14.4545C1203.67 15.2045 1204.67 16.2576 1205.36 17.6136C1206.06 18.9621 1206.41 20.5379 1206.41 22.3409C1206.41 24.1288 1206.06 25.7008 1205.36 27.0568C1204.67 28.4053 1203.67 29.4583 1202.39 30.2159C1201.11 30.9659 1199.58 31.3409 1197.82 31.3409ZM1197.84 27.5909C1198.64 27.5909 1199.31 27.3636 1199.85 26.9091C1200.39 26.447 1200.8 25.8182 1201.07 25.0227C1201.35 24.2273 1201.49 23.322 1201.49 22.3068C1201.49 21.2917 1201.35 20.3864 1201.07 19.5909C1200.8 18.7955 1200.39 18.1667 1199.85 17.7045C1199.31 17.2424 1198.64 17.0114 1197.84 17.0114C1197.03 17.0114 1196.35 17.2424 1195.8 17.7045C1195.25 18.1667 1194.84 18.7955 1194.56 19.5909C1194.28 20.3864 1194.15 21.2917 1194.15 22.3068C1194.15 23.322 1194.28 24.2273 1194.56 25.0227C1194.84 25.8182 1195.25 26.447 1195.8 26.9091C1196.35 27.3636 1197.03 27.5909 1197.84 27.5909ZM1220.75 23.5682V13.5455H1225.59V31H1220.94V27.8295H1220.76C1220.37 28.8523 1219.71 29.6742 1218.8 30.2955C1217.89 30.9167 1216.78 31.2273 1215.47 31.2273C1214.3 31.2273 1213.27 30.9621 1212.39 30.4318C1211.5 29.9015 1210.81 29.1477 1210.31 28.1705C1209.81 27.1932 1209.56 26.0227 1209.56 24.6591V13.5455H1214.4V23.7955C1214.41 24.8258 1214.68 25.6402 1215.23 26.2386C1215.77 26.8371 1216.5 27.1364 1217.42 27.1364C1218 27.1364 1218.55 27.0038 1219.06 26.7386C1219.56 26.4659 1219.97 26.0644 1220.28 25.5341C1220.6 25.0038 1220.76 24.3485 1220.75 23.5682ZM1238.75 13.5455V17.1818H1228.24V13.5455H1238.75ZM1230.62 9.36364H1235.46V25.6364C1235.46 26.0833 1235.53 26.4318 1235.67 26.6818C1235.8 26.9242 1235.99 27.0947 1236.24 27.1932C1236.49 27.2917 1236.77 27.3409 1237.1 27.3409C1237.33 27.3409 1237.55 27.322 1237.78 27.2841C1238.01 27.2386 1238.18 27.2045 1238.3 27.1818L1239.07 30.7841C1238.82 30.8598 1238.48 30.947 1238.04 31.0455C1237.6 31.1515 1237.07 31.2159 1236.44 31.2386C1235.27 31.2841 1234.25 31.1288 1233.37 30.7727C1232.5 30.4167 1231.82 29.8636 1231.34 29.1136C1230.85 28.3636 1230.61 27.4167 1230.62 26.2727V9.36364ZM1249.4 7.72727H1255.47L1261.88 23.3636H1262.15L1268.56 7.72727H1274.63V31H1269.85V15.8523H1269.66L1263.64 30.8864H1260.39L1254.36 15.7955H1254.17V31H1249.4V7.72727ZM1286.54 31.3409C1284.75 31.3409 1283.2 30.9773 1281.91 30.25C1280.62 29.5152 1279.63 28.4773 1278.93 27.1364C1278.23 25.7879 1277.88 24.1932 1277.88 22.3523C1277.88 20.5568 1278.23 18.9811 1278.93 17.625C1279.63 16.2689 1280.61 15.2121 1281.87 14.4545C1283.15 13.697 1284.64 13.3182 1286.35 13.3182C1287.5 13.3182 1288.57 13.5038 1289.57 13.875C1290.57 14.2386 1291.44 14.7879 1292.18 15.5227C1292.93 16.2576 1293.51 17.1818 1293.93 18.2955C1294.35 19.4015 1294.55 20.697 1294.55 22.1818V23.5114H1279.82V20.5114H1290C1290 19.8144 1289.85 19.197 1289.54 18.6591C1289.24 18.1212 1288.82 17.7008 1288.28 17.3977C1287.75 17.0871 1287.13 16.9318 1286.43 16.9318C1285.69 16.9318 1285.04 17.1023 1284.47 17.4432C1283.91 17.7765 1283.47 18.2273 1283.16 18.7955C1282.84 19.3561 1282.68 19.9811 1282.67 20.6705V23.5227C1282.67 24.3864 1282.83 25.1326 1283.15 25.7614C1283.47 26.3902 1283.93 26.875 1284.52 27.2159C1285.11 27.5568 1285.81 27.7273 1286.62 27.7273C1287.16 27.7273 1287.65 27.6515 1288.1 27.5C1288.55 27.3485 1288.93 27.1212 1289.25 26.8182C1289.57 26.5152 1289.81 26.1439 1289.97 25.7045L1294.45 26C1294.22 27.0758 1293.76 28.0152 1293.05 28.8182C1292.36 29.6136 1291.46 30.2348 1290.35 30.6818C1289.25 31.1212 1287.98 31.3409 1286.54 31.3409ZM1301.87 24.0227V23.6364C1301.88 22.3106 1302 21.2538 1302.22 20.4659C1302.46 19.678 1302.8 19.0417 1303.25 18.5568C1303.69 18.072 1304.23 17.6326 1304.86 17.2386C1305.33 16.9356 1305.75 16.6212 1306.12 16.2955C1306.49 15.9697 1306.79 15.6098 1307.01 15.2159C1307.23 14.8144 1307.34 14.3674 1307.34 13.875C1307.34 13.3523 1307.21 12.8939 1306.96 12.5C1306.71 12.1061 1306.38 11.803 1305.95 11.5909C1305.54 11.3788 1305.07 11.2727 1304.57 11.2727C1304.07 11.2727 1303.61 11.3826 1303.17 11.6023C1302.73 11.8144 1302.37 12.1326 1302.09 12.5568C1301.81 12.9735 1301.66 13.4924 1301.63 14.1136H1297C1297.04 12.5985 1297.4 11.3485 1298.09 10.3636C1298.78 9.37121 1299.69 8.63258 1300.83 8.14773C1301.96 7.6553 1303.22 7.40909 1304.59 7.40909C1306.1 7.40909 1307.43 7.65909 1308.59 8.15909C1309.75 8.65151 1310.66 9.36742 1311.32 10.3068C1311.97 11.2462 1312.3 12.3788 1312.3 13.7045C1312.3 14.5909 1312.16 15.3788 1311.86 16.0682C1311.57 16.75 1311.17 17.3561 1310.65 17.8864C1310.12 18.4091 1309.5 18.8826 1308.79 19.3068C1308.19 19.6629 1307.7 20.0341 1307.32 20.4205C1306.94 20.8068 1306.65 21.2538 1306.46 21.7614C1306.28 22.2689 1306.19 22.8939 1306.18 23.6364V24.0227H1301.87ZM1304.12 31.2955C1303.36 31.2955 1302.72 31.0303 1302.18 30.5C1301.65 29.9621 1301.39 29.3182 1301.4 28.5682C1301.39 27.8258 1301.65 27.1894 1302.18 26.6591C1302.72 26.1288 1303.36 25.8636 1304.12 25.8636C1304.84 25.8636 1305.47 26.1288 1306.02 26.6591C1306.57 27.1894 1306.84 27.8258 1306.85 28.5682C1306.84 29.0682 1306.71 29.5265 1306.45 29.9432C1306.2 30.3523 1305.87 30.6818 1305.46 30.9318C1305.05 31.1742 1304.61 31.2955 1304.12 31.2955Z" fill="black"/>
<path d="M0 56L1314 56" stroke="black"/>
</svg>
